<mxfile host="app.diagrams.net" modified="2023-07-10T16:44:35.140Z" agent="Mozilla/5.0 (Windows NT 10.0; Win64; x64) AppleWebKit/537.36 (KHTML, like Gecko) Chrome/114.0.0.0 Safari/537.36" etag="vilMV079J1QjYPXSVDb4" version="21.6.1" type="device">
  <diagram name="Page-1" id="0cxLK6B1qZ-80W-4j8hx">
    <mxGraphModel dx="2287" dy="929" grid="0" gridSize="10" guides="1" tooltips="1" connect="1" arrows="1" fold="1" page="0" pageScale="1" pageWidth="850" pageHeight="1100" math="0" shadow="0">
      <root>
        <mxCell id="0" />
        <mxCell id="1" parent="0" />
        <mxCell id="Iu25lgEWChFgaFbriD92-5" value="" style="curved=1;endArrow=classic;html=1;rounded=0;fontSize=14;fontStyle=1;exitX=1;exitY=0.5;exitDx=0;exitDy=0;entryX=0.5;entryY=0;entryDx=0;entryDy=0;" parent="1" source="WK32DhDvXuLAIViGbRyr-48" target="WK32DhDvXuLAIViGbRyr-4" edge="1">
          <mxGeometry width="50" height="50" relative="1" as="geometry">
            <mxPoint x="255" y="230" as="sourcePoint" />
            <mxPoint x="290" y="190" as="targetPoint" />
            <Array as="points">
              <mxPoint x="260" y="210" />
              <mxPoint x="270" y="190" />
            </Array>
          </mxGeometry>
        </mxCell>
        <mxCell id="Iu25lgEWChFgaFbriD92-103" value="&lt;font style=&quot;font-size: 18px;&quot;&gt;Output&lt;/font&gt;" style="rounded=1;whiteSpace=wrap;html=1;fillColor=#f5f5f5;gradientColor=#b3b3b3;strokeColor=#666666;fontSize=14;fontStyle=1;rotation=-90;" parent="1" vertex="1">
          <mxGeometry x="1780" y="283.74" width="90" height="35" as="geometry" />
        </mxCell>
        <mxCell id="Iu25lgEWChFgaFbriD92-110" value="" style="strokeWidth=2;html=1;shape=mxgraph.flowchart.annotation_1;align=left;pointerEvents=1;direction=south;fontSize=14;fontStyle=1" parent="1" vertex="1">
          <mxGeometry x="850" y="70" width="590" height="50" as="geometry" />
        </mxCell>
        <mxCell id="Iu25lgEWChFgaFbriD92-111" value="&lt;font style=&quot;font-size: 18px;&quot;&gt;Decision Sub Graph&lt;/font&gt;" style="text;html=1;align=center;verticalAlign=middle;resizable=0;points=[];autosize=1;strokeColor=none;fillColor=none;fontSize=14;fontStyle=1" parent="1" vertex="1">
          <mxGeometry x="1595" y="80.00999999999999" width="200" height="40" as="geometry" />
        </mxCell>
        <mxCell id="Iu25lgEWChFgaFbriD92-123" value="&lt;font style=&quot;font-size: 18px;&quot;&gt;Sub Graph1&lt;/font&gt;" style="text;html=1;align=center;verticalAlign=middle;resizable=0;points=[];autosize=1;strokeColor=none;fillColor=none;fontSize=14;fontStyle=1" parent="1" vertex="1">
          <mxGeometry x="450" y="30" width="130" height="40" as="geometry" />
        </mxCell>
        <mxCell id="Iu25lgEWChFgaFbriD92-125" value="&lt;font style=&quot;font-size: 18px;&quot;&gt;Skipping Sub Graph1 and Sub Graph2&lt;/font&gt;" style="text;html=1;align=center;verticalAlign=middle;resizable=0;points=[];autosize=1;strokeColor=none;fillColor=none;fontSize=14;fontStyle=1" parent="1" vertex="1">
          <mxGeometry x="692.5" y="458" width="350" height="40" as="geometry" />
        </mxCell>
        <mxCell id="Iu25lgEWChFgaFbriD92-127" value="&lt;font style=&quot;font-size: 18px;&quot;&gt;Merging Early Exit Sub Graph with Decision Sub Graph&lt;/font&gt;" style="text;html=1;align=center;verticalAlign=middle;resizable=0;points=[];autosize=1;strokeColor=none;fillColor=none;fontSize=14;fontStyle=1" parent="1" vertex="1">
          <mxGeometry x="635" y="498" width="500" height="40" as="geometry" />
        </mxCell>
        <mxCell id="Iu25lgEWChFgaFbriD92-145" value="&lt;font style=&quot;font-size: 48px;&quot;&gt;...&lt;/font&gt;" style="text;html=1;align=center;verticalAlign=middle;resizable=0;points=[];autosize=1;strokeColor=none;fillColor=none;fontSize=14;fontStyle=1" parent="1" vertex="1">
          <mxGeometry x="2.5" y="143.13" width="60" height="70" as="geometry" />
        </mxCell>
        <mxCell id="Iu25lgEWChFgaFbriD92-146" value="&lt;font style=&quot;font-size: 48px;&quot;&gt;...&lt;/font&gt;" style="text;html=1;align=center;verticalAlign=middle;resizable=0;points=[];autosize=1;strokeColor=none;fillColor=none;fontSize=14;fontStyle=1" parent="1" vertex="1">
          <mxGeometry x="-1" y="388" width="60" height="70" as="geometry" />
        </mxCell>
        <mxCell id="Iu25lgEWChFgaFbriD92-147" value="&lt;font style=&quot;font-size: 18px;&quot;&gt;Early Exit Sub Graph&lt;/font&gt;" style="text;html=1;align=center;verticalAlign=middle;resizable=0;points=[];autosize=1;strokeColor=none;fillColor=none;fontSize=14;fontStyle=1;rotation=-90;" parent="1" vertex="1">
          <mxGeometry x="-67.5" y="299" width="200" height="40" as="geometry" />
        </mxCell>
        <mxCell id="WK32DhDvXuLAIViGbRyr-2" value="&lt;b&gt;&lt;font style=&quot;font-size: 18px;&quot;&gt;BatchNormalization&lt;/font&gt;&lt;/b&gt;" style="rounded=1;whiteSpace=wrap;html=1;fillColor=#6d8764;fontColor=#ffffff;strokeColor=#3A5431;rotation=-90;" parent="1" vertex="1">
          <mxGeometry x="-20" y="167.5" width="192.5" height="35" as="geometry" />
        </mxCell>
        <mxCell id="WK32DhDvXuLAIViGbRyr-3" value="&lt;b&gt;&lt;font style=&quot;font-size: 18px;&quot;&gt;BatchNormalization&lt;/font&gt;&lt;/b&gt;" style="rounded=1;whiteSpace=wrap;html=1;fillColor=#6d8764;fontColor=#ffffff;strokeColor=#3A5431;rotation=-90;" parent="1" vertex="1">
          <mxGeometry x="-20" y="410" width="192.5" height="37.5" as="geometry" />
        </mxCell>
        <mxCell id="WK32DhDvXuLAIViGbRyr-26" style="edgeStyle=orthogonalEdgeStyle;rounded=0;orthogonalLoop=1;jettySize=auto;html=1;exitX=0.5;exitY=1;exitDx=0;exitDy=0;entryX=0.5;entryY=0;entryDx=0;entryDy=0;" parent="1" source="WK32DhDvXuLAIViGbRyr-4" target="WK32DhDvXuLAIViGbRyr-24" edge="1">
          <mxGeometry relative="1" as="geometry" />
        </mxCell>
        <mxCell id="WK32DhDvXuLAIViGbRyr-4" value="&lt;b&gt;&lt;font style=&quot;font-size: 18px;&quot;&gt;Conv&lt;/font&gt;&lt;/b&gt;" style="rounded=1;whiteSpace=wrap;html=1;fillColor=#0038A8;fontColor=#ffffff;strokeColor=#001DBC;rotation=-90;" parent="1" vertex="1">
          <mxGeometry x="276.87" y="169.39" width="65" height="33.74" as="geometry" />
        </mxCell>
        <mxCell id="WK32DhDvXuLAIViGbRyr-28" style="edgeStyle=orthogonalEdgeStyle;rounded=0;orthogonalLoop=1;jettySize=auto;html=1;exitX=0.5;exitY=1;exitDx=0;exitDy=0;entryX=0.5;entryY=0;entryDx=0;entryDy=0;" parent="1" source="WK32DhDvXuLAIViGbRyr-24" target="WK32DhDvXuLAIViGbRyr-49" edge="1">
          <mxGeometry relative="1" as="geometry">
            <mxPoint x="407.5" y="186.25" as="targetPoint" />
          </mxGeometry>
        </mxCell>
        <mxCell id="WK32DhDvXuLAIViGbRyr-24" value="&lt;b&gt;&lt;font style=&quot;font-size: 18px;&quot;&gt;BatchNormalization&lt;/font&gt;&lt;/b&gt;" style="rounded=1;whiteSpace=wrap;html=1;fillColor=#6d8764;fontColor=#ffffff;strokeColor=#3A5431;rotation=-90;" parent="1" vertex="1">
          <mxGeometry x="267.5" y="167.5" width="192.5" height="37.5" as="geometry" />
        </mxCell>
        <mxCell id="WK32DhDvXuLAIViGbRyr-31" style="edgeStyle=orthogonalEdgeStyle;rounded=0;orthogonalLoop=1;jettySize=auto;html=1;exitX=0.5;exitY=1;exitDx=0;exitDy=0;entryX=0.5;entryY=0;entryDx=0;entryDy=0;" parent="1" source="WK32DhDvXuLAIViGbRyr-49" target="WK32DhDvXuLAIViGbRyr-29" edge="1">
          <mxGeometry relative="1" as="geometry">
            <mxPoint x="442.5" y="186.25" as="sourcePoint" />
          </mxGeometry>
        </mxCell>
        <mxCell id="WK32DhDvXuLAIViGbRyr-36" style="edgeStyle=orthogonalEdgeStyle;rounded=0;orthogonalLoop=1;jettySize=auto;html=1;exitX=0.5;exitY=1;exitDx=0;exitDy=0;entryX=0.5;entryY=0;entryDx=0;entryDy=0;" parent="1" source="WK32DhDvXuLAIViGbRyr-29" target="WK32DhDvXuLAIViGbRyr-32" edge="1">
          <mxGeometry relative="1" as="geometry" />
        </mxCell>
        <mxCell id="WK32DhDvXuLAIViGbRyr-29" value="&lt;b&gt;&lt;font style=&quot;font-size: 18px;&quot;&gt;Conv&lt;/font&gt;&lt;/b&gt;" style="rounded=1;whiteSpace=wrap;html=1;fillColor=#0038A8;fontColor=#ffffff;strokeColor=#001DBC;rotation=-90;" parent="1" vertex="1">
          <mxGeometry x="440" y="170.01" width="65" height="33.74" as="geometry" />
        </mxCell>
        <mxCell id="WK32DhDvXuLAIViGbRyr-38" style="edgeStyle=orthogonalEdgeStyle;rounded=0;orthogonalLoop=1;jettySize=auto;html=1;exitX=0.5;exitY=1;exitDx=0;exitDy=0;entryX=0.5;entryY=0;entryDx=0;entryDy=0;" parent="1" source="WK32DhDvXuLAIViGbRyr-32" target="WK32DhDvXuLAIViGbRyr-50" edge="1">
          <mxGeometry relative="1" as="geometry">
            <mxPoint x="590" y="186.88" as="targetPoint" />
          </mxGeometry>
        </mxCell>
        <mxCell id="WK32DhDvXuLAIViGbRyr-32" value="&lt;b&gt;&lt;font style=&quot;font-size: 18px;&quot;&gt;BatchNormalization&lt;/font&gt;&lt;/b&gt;" style="rounded=1;whiteSpace=wrap;html=1;fillColor=#6d8764;fontColor=#ffffff;strokeColor=#3A5431;rotation=-90;" parent="1" vertex="1">
          <mxGeometry x="430" y="168.13" width="192.5" height="37.5" as="geometry" />
        </mxCell>
        <mxCell id="WK32DhDvXuLAIViGbRyr-40" style="edgeStyle=orthogonalEdgeStyle;rounded=0;orthogonalLoop=1;jettySize=auto;html=1;exitX=0.5;exitY=1;exitDx=0;exitDy=0;entryX=0.5;entryY=0;entryDx=0;entryDy=0;" parent="1" source="WK32DhDvXuLAIViGbRyr-50" target="WK32DhDvXuLAIViGbRyr-39" edge="1">
          <mxGeometry relative="1" as="geometry">
            <mxPoint x="625" y="186.88" as="sourcePoint" />
          </mxGeometry>
        </mxCell>
        <mxCell id="WK32DhDvXuLAIViGbRyr-42" style="edgeStyle=orthogonalEdgeStyle;rounded=0;orthogonalLoop=1;jettySize=auto;html=1;exitX=0.5;exitY=1;exitDx=0;exitDy=0;entryX=0.5;entryY=0;entryDx=0;entryDy=0;" parent="1" source="WK32DhDvXuLAIViGbRyr-39" target="WK32DhDvXuLAIViGbRyr-41" edge="1">
          <mxGeometry relative="1" as="geometry" />
        </mxCell>
        <mxCell id="WK32DhDvXuLAIViGbRyr-39" value="&lt;b&gt;&lt;font style=&quot;font-size: 18px;&quot;&gt;Conv&lt;/font&gt;&lt;/b&gt;" style="rounded=1;whiteSpace=wrap;html=1;fillColor=#0038A8;fontColor=#ffffff;strokeColor=#001DBC;rotation=-90;" parent="1" vertex="1">
          <mxGeometry x="610" y="170.01" width="65" height="33.74" as="geometry" />
        </mxCell>
        <mxCell id="WK32DhDvXuLAIViGbRyr-41" value="&lt;b&gt;&lt;font style=&quot;font-size: 18px;&quot;&gt;BatchNormalization&lt;/font&gt;&lt;/b&gt;" style="rounded=1;whiteSpace=wrap;html=1;fillColor=#6d8764;fontColor=#ffffff;strokeColor=#3A5431;rotation=-90;" parent="1" vertex="1">
          <mxGeometry x="610" y="167.5" width="192.5" height="37.5" as="geometry" />
        </mxCell>
        <mxCell id="WK32DhDvXuLAIViGbRyr-45" value="" style="curved=1;endArrow=classic;html=1;rounded=0;exitX=0.5;exitY=1;exitDx=0;exitDy=0;fontSize=14;fontStyle=1;entryX=1;entryY=0.5;entryDx=0;entryDy=0;" parent="1" source="WK32DhDvXuLAIViGbRyr-41" target="WK32DhDvXuLAIViGbRyr-46" edge="1">
          <mxGeometry width="50" height="50" relative="1" as="geometry">
            <mxPoint x="750.0000000000001" y="190" as="sourcePoint" />
            <mxPoint x="800" y="320" as="targetPoint" />
            <Array as="points">
              <mxPoint x="806.12" y="193.75" />
            </Array>
          </mxGeometry>
        </mxCell>
        <mxCell id="WK32DhDvXuLAIViGbRyr-121" style="edgeStyle=orthogonalEdgeStyle;rounded=0;orthogonalLoop=1;jettySize=auto;html=1;exitX=0.5;exitY=1;exitDx=0;exitDy=0;entryX=0.5;entryY=0;entryDx=0;entryDy=0;" parent="1" source="WK32DhDvXuLAIViGbRyr-46" target="WK32DhDvXuLAIViGbRyr-117" edge="1">
          <mxGeometry relative="1" as="geometry">
            <mxPoint x="851" y="300" as="targetPoint" />
          </mxGeometry>
        </mxCell>
        <mxCell id="WK32DhDvXuLAIViGbRyr-46" value="&lt;b&gt;&lt;font style=&quot;font-size: 18px;&quot;&gt;Sum&lt;/font&gt;&lt;/b&gt;" style="rounded=1;whiteSpace=wrap;html=1;fillColor=#76608a;fontColor=#ffffff;strokeColor=#432D57;rotation=-90;" parent="1" vertex="1">
          <mxGeometry x="770" y="283.74" width="65" height="33.74" as="geometry" />
        </mxCell>
        <mxCell id="WK32DhDvXuLAIViGbRyr-48" value="&lt;b&gt;&lt;font style=&quot;font-size: 18px;&quot;&gt;Relu&lt;/font&gt;&lt;/b&gt;" style="rounded=1;whiteSpace=wrap;html=1;fillColor=#a20025;fontColor=#ffffff;strokeColor=#6F0000;rotation=-90;" parent="1" vertex="1">
          <mxGeometry x="220" y="283.74" width="65" height="33.74" as="geometry" />
        </mxCell>
        <mxCell id="WK32DhDvXuLAIViGbRyr-49" value="&lt;b&gt;&lt;font style=&quot;font-size: 18px;&quot;&gt;Relu&lt;/font&gt;&lt;/b&gt;" style="rounded=1;whiteSpace=wrap;html=1;fillColor=#a20025;fontColor=#ffffff;strokeColor=#6F0000;rotation=-90;" parent="1" vertex="1">
          <mxGeometry x="385" y="170.01" width="65" height="33.74" as="geometry" />
        </mxCell>
        <mxCell id="WK32DhDvXuLAIViGbRyr-50" value="&lt;b&gt;&lt;font style=&quot;font-size: 18px;&quot;&gt;Relu&lt;/font&gt;&lt;/b&gt;" style="rounded=1;whiteSpace=wrap;html=1;fillColor=#a20025;fontColor=#ffffff;strokeColor=#6F0000;rotation=-90;" parent="1" vertex="1">
          <mxGeometry x="550" y="170.01" width="65" height="33.74" as="geometry" />
        </mxCell>
        <mxCell id="WK32DhDvXuLAIViGbRyr-52" style="edgeStyle=orthogonalEdgeStyle;rounded=0;orthogonalLoop=1;jettySize=auto;html=1;exitX=0.5;exitY=1;exitDx=0;exitDy=0;entryX=0.5;entryY=0;entryDx=0;entryDy=0;" parent="1" source="WK32DhDvXuLAIViGbRyr-51" target="WK32DhDvXuLAIViGbRyr-48" edge="1">
          <mxGeometry relative="1" as="geometry" />
        </mxCell>
        <mxCell id="WK32DhDvXuLAIViGbRyr-51" value="&lt;b&gt;&lt;font style=&quot;font-size: 18px;&quot;&gt;Sum&lt;/font&gt;&lt;/b&gt;" style="rounded=1;whiteSpace=wrap;html=1;fillColor=#76608a;fontColor=#ffffff;strokeColor=#432D57;rotation=-90;" parent="1" vertex="1">
          <mxGeometry x="132.5" y="283.74" width="65" height="33.74" as="geometry" />
        </mxCell>
        <mxCell id="WK32DhDvXuLAIViGbRyr-60" value="" style="curved=1;endArrow=classic;html=1;rounded=0;exitX=0;exitY=0.5;exitDx=0;exitDy=0;entryX=0;entryY=0.5;entryDx=0;entryDy=0;" parent="1" source="WK32DhDvXuLAIViGbRyr-48" target="WK32DhDvXuLAIViGbRyr-46" edge="1">
          <mxGeometry width="50" height="50" relative="1" as="geometry">
            <mxPoint x="290" y="300" as="sourcePoint" />
            <mxPoint x="340" y="250" as="targetPoint" />
            <Array as="points">
              <mxPoint x="270" y="410" />
              <mxPoint x="410" y="430" />
              <mxPoint x="810" y="430" />
            </Array>
          </mxGeometry>
        </mxCell>
        <mxCell id="WK32DhDvXuLAIViGbRyr-62" value="" style="curved=1;endArrow=classic;html=1;rounded=0;exitX=0.5;exitY=1;exitDx=0;exitDy=0;fontSize=14;fontStyle=1;entryX=1;entryY=0.5;entryDx=0;entryDy=0;" parent="1" source="WK32DhDvXuLAIViGbRyr-2" target="WK32DhDvXuLAIViGbRyr-51" edge="1">
          <mxGeometry width="50" height="50" relative="1" as="geometry">
            <mxPoint x="101.38" y="190" as="sourcePoint" />
            <mxPoint x="179.38" y="272" as="targetPoint" />
            <Array as="points">
              <mxPoint x="170" y="180" />
            </Array>
          </mxGeometry>
        </mxCell>
        <mxCell id="WK32DhDvXuLAIViGbRyr-63" value="" style="curved=1;endArrow=classic;html=1;rounded=0;exitX=0.5;exitY=1;exitDx=0;exitDy=0;fontSize=14;fontStyle=1;entryX=0;entryY=0.5;entryDx=0;entryDy=0;" parent="1" source="WK32DhDvXuLAIViGbRyr-3" target="WK32DhDvXuLAIViGbRyr-51" edge="1">
          <mxGeometry width="50" height="50" relative="1" as="geometry">
            <mxPoint x="96.5" y="435" as="sourcePoint" />
            <mxPoint x="167.5" y="518" as="targetPoint" />
            <Array as="points">
              <mxPoint x="172.5" y="430" />
            </Array>
          </mxGeometry>
        </mxCell>
        <mxCell id="WK32DhDvXuLAIViGbRyr-101" value="" style="curved=1;endArrow=classic;html=1;rounded=0;fontSize=14;fontStyle=1;exitX=1;exitY=0.5;exitDx=0;exitDy=0;entryX=0.5;entryY=0;entryDx=0;entryDy=0;" parent="1" source="WK32DhDvXuLAIViGbRyr-117" target="WK32DhDvXuLAIViGbRyr-103" edge="1">
          <mxGeometry width="50" height="50" relative="1" as="geometry">
            <mxPoint x="870" y="230" as="sourcePoint" />
            <mxPoint x="905" y="190" as="targetPoint" />
            <Array as="points">
              <mxPoint x="875" y="210" />
              <mxPoint x="885" y="190" />
            </Array>
          </mxGeometry>
        </mxCell>
        <mxCell id="WK32DhDvXuLAIViGbRyr-102" style="edgeStyle=orthogonalEdgeStyle;rounded=0;orthogonalLoop=1;jettySize=auto;html=1;exitX=0.5;exitY=1;exitDx=0;exitDy=0;entryX=0.5;entryY=0;entryDx=0;entryDy=0;" parent="1" source="WK32DhDvXuLAIViGbRyr-103" target="WK32DhDvXuLAIViGbRyr-105" edge="1">
          <mxGeometry relative="1" as="geometry" />
        </mxCell>
        <mxCell id="WK32DhDvXuLAIViGbRyr-103" value="&lt;b&gt;&lt;font style=&quot;font-size: 18px;&quot;&gt;Conv&lt;/font&gt;&lt;/b&gt;" style="rounded=1;whiteSpace=wrap;html=1;fillColor=#0038A8;fontColor=#ffffff;strokeColor=#001DBC;rotation=-90;" parent="1" vertex="1">
          <mxGeometry x="891.87" y="169.39" width="65" height="33.74" as="geometry" />
        </mxCell>
        <mxCell id="WK32DhDvXuLAIViGbRyr-104" style="edgeStyle=orthogonalEdgeStyle;rounded=0;orthogonalLoop=1;jettySize=auto;html=1;exitX=0.5;exitY=1;exitDx=0;exitDy=0;entryX=0.5;entryY=0;entryDx=0;entryDy=0;" parent="1" source="WK32DhDvXuLAIViGbRyr-105" target="WK32DhDvXuLAIViGbRyr-118" edge="1">
          <mxGeometry relative="1" as="geometry">
            <mxPoint x="1022.5" y="186.25" as="targetPoint" />
          </mxGeometry>
        </mxCell>
        <mxCell id="WK32DhDvXuLAIViGbRyr-105" value="&lt;b&gt;&lt;font style=&quot;font-size: 18px;&quot;&gt;BatchNormalization&lt;/font&gt;&lt;/b&gt;" style="rounded=1;whiteSpace=wrap;html=1;fillColor=#6d8764;fontColor=#ffffff;strokeColor=#3A5431;rotation=-90;" parent="1" vertex="1">
          <mxGeometry x="882.5" y="167.5" width="192.5" height="37.5" as="geometry" />
        </mxCell>
        <mxCell id="WK32DhDvXuLAIViGbRyr-106" style="edgeStyle=orthogonalEdgeStyle;rounded=0;orthogonalLoop=1;jettySize=auto;html=1;exitX=0.5;exitY=1;exitDx=0;exitDy=0;entryX=0.5;entryY=0;entryDx=0;entryDy=0;" parent="1" source="WK32DhDvXuLAIViGbRyr-118" target="WK32DhDvXuLAIViGbRyr-108" edge="1">
          <mxGeometry relative="1" as="geometry">
            <mxPoint x="1057.5" y="186.25" as="sourcePoint" />
          </mxGeometry>
        </mxCell>
        <mxCell id="WK32DhDvXuLAIViGbRyr-107" style="edgeStyle=orthogonalEdgeStyle;rounded=0;orthogonalLoop=1;jettySize=auto;html=1;exitX=0.5;exitY=1;exitDx=0;exitDy=0;entryX=0.5;entryY=0;entryDx=0;entryDy=0;" parent="1" source="WK32DhDvXuLAIViGbRyr-108" target="WK32DhDvXuLAIViGbRyr-110" edge="1">
          <mxGeometry relative="1" as="geometry" />
        </mxCell>
        <mxCell id="WK32DhDvXuLAIViGbRyr-108" value="&lt;b&gt;&lt;font style=&quot;font-size: 18px;&quot;&gt;Conv&lt;/font&gt;&lt;/b&gt;" style="rounded=1;whiteSpace=wrap;html=1;fillColor=#0038A8;fontColor=#ffffff;strokeColor=#001DBC;rotation=-90;" parent="1" vertex="1">
          <mxGeometry x="1055" y="170.01" width="65" height="33.74" as="geometry" />
        </mxCell>
        <mxCell id="WK32DhDvXuLAIViGbRyr-109" style="edgeStyle=orthogonalEdgeStyle;rounded=0;orthogonalLoop=1;jettySize=auto;html=1;exitX=0.5;exitY=1;exitDx=0;exitDy=0;entryX=0.5;entryY=0;entryDx=0;entryDy=0;" parent="1" source="WK32DhDvXuLAIViGbRyr-110" target="WK32DhDvXuLAIViGbRyr-119" edge="1">
          <mxGeometry relative="1" as="geometry">
            <mxPoint x="1205" y="186.88" as="targetPoint" />
          </mxGeometry>
        </mxCell>
        <mxCell id="WK32DhDvXuLAIViGbRyr-110" value="&lt;b&gt;&lt;font style=&quot;font-size: 18px;&quot;&gt;BatchNormalization&lt;/font&gt;&lt;/b&gt;" style="rounded=1;whiteSpace=wrap;html=1;fillColor=#6d8764;fontColor=#ffffff;strokeColor=#3A5431;rotation=-90;" parent="1" vertex="1">
          <mxGeometry x="1045" y="168.13" width="192.5" height="37.5" as="geometry" />
        </mxCell>
        <mxCell id="WK32DhDvXuLAIViGbRyr-111" style="edgeStyle=orthogonalEdgeStyle;rounded=0;orthogonalLoop=1;jettySize=auto;html=1;exitX=0.5;exitY=1;exitDx=0;exitDy=0;entryX=0.5;entryY=0;entryDx=0;entryDy=0;" parent="1" source="WK32DhDvXuLAIViGbRyr-119" target="WK32DhDvXuLAIViGbRyr-113" edge="1">
          <mxGeometry relative="1" as="geometry">
            <mxPoint x="1240" y="186.88" as="sourcePoint" />
          </mxGeometry>
        </mxCell>
        <mxCell id="WK32DhDvXuLAIViGbRyr-112" style="edgeStyle=orthogonalEdgeStyle;rounded=0;orthogonalLoop=1;jettySize=auto;html=1;exitX=0.5;exitY=1;exitDx=0;exitDy=0;entryX=0.5;entryY=0;entryDx=0;entryDy=0;" parent="1" source="WK32DhDvXuLAIViGbRyr-113" target="WK32DhDvXuLAIViGbRyr-114" edge="1">
          <mxGeometry relative="1" as="geometry" />
        </mxCell>
        <mxCell id="WK32DhDvXuLAIViGbRyr-113" value="&lt;b&gt;&lt;font style=&quot;font-size: 18px;&quot;&gt;Conv&lt;/font&gt;&lt;/b&gt;" style="rounded=1;whiteSpace=wrap;html=1;fillColor=#0038A8;fontColor=#ffffff;strokeColor=#001DBC;rotation=-90;" parent="1" vertex="1">
          <mxGeometry x="1225" y="170.01" width="65" height="33.74" as="geometry" />
        </mxCell>
        <mxCell id="WK32DhDvXuLAIViGbRyr-114" value="&lt;b&gt;&lt;font style=&quot;font-size: 18px;&quot;&gt;BatchNormalization&lt;/font&gt;&lt;/b&gt;" style="rounded=1;whiteSpace=wrap;html=1;fillColor=#6d8764;fontColor=#ffffff;strokeColor=#3A5431;rotation=-90;" parent="1" vertex="1">
          <mxGeometry x="1225" y="167.5" width="192.5" height="37.5" as="geometry" />
        </mxCell>
        <mxCell id="WK32DhDvXuLAIViGbRyr-115" value="" style="curved=1;endArrow=classic;html=1;rounded=0;exitX=0.5;exitY=1;exitDx=0;exitDy=0;fontSize=14;fontStyle=1;entryX=1;entryY=0.5;entryDx=0;entryDy=0;" parent="1" source="WK32DhDvXuLAIViGbRyr-114" target="WK32DhDvXuLAIViGbRyr-116" edge="1">
          <mxGeometry width="50" height="50" relative="1" as="geometry">
            <mxPoint x="1365" y="190" as="sourcePoint" />
            <mxPoint x="1415" y="320" as="targetPoint" />
            <Array as="points">
              <mxPoint x="1421.12" y="193.75" />
            </Array>
          </mxGeometry>
        </mxCell>
        <mxCell id="WK32DhDvXuLAIViGbRyr-123" style="edgeStyle=orthogonalEdgeStyle;rounded=0;orthogonalLoop=1;jettySize=auto;html=1;exitX=0.5;exitY=1;exitDx=0;exitDy=0;entryX=0.5;entryY=0;entryDx=0;entryDy=0;" parent="1" source="WK32DhDvXuLAIViGbRyr-116" target="WK32DhDvXuLAIViGbRyr-122" edge="1">
          <mxGeometry relative="1" as="geometry">
            <mxPoint x="1466" y="301" as="targetPoint" />
          </mxGeometry>
        </mxCell>
        <mxCell id="WK32DhDvXuLAIViGbRyr-116" value="&lt;b&gt;&lt;font style=&quot;font-size: 18px;&quot;&gt;Sum&lt;/font&gt;&lt;/b&gt;" style="rounded=1;whiteSpace=wrap;html=1;fillColor=#76608a;fontColor=#ffffff;strokeColor=#432D57;rotation=-90;" parent="1" vertex="1">
          <mxGeometry x="1385" y="283.74" width="65" height="33.74" as="geometry" />
        </mxCell>
        <mxCell id="WK32DhDvXuLAIViGbRyr-117" value="&lt;b&gt;&lt;font style=&quot;font-size: 18px;&quot;&gt;Relu&lt;/font&gt;&lt;/b&gt;" style="rounded=1;whiteSpace=wrap;html=1;fillColor=#a20025;fontColor=#ffffff;strokeColor=#6F0000;rotation=-90;" parent="1" vertex="1">
          <mxGeometry x="835" y="283.74" width="65" height="33.74" as="geometry" />
        </mxCell>
        <mxCell id="WK32DhDvXuLAIViGbRyr-118" value="&lt;b&gt;&lt;font style=&quot;font-size: 18px;&quot;&gt;Relu&lt;/font&gt;&lt;/b&gt;" style="rounded=1;whiteSpace=wrap;html=1;fillColor=#a20025;fontColor=#ffffff;strokeColor=#6F0000;rotation=-90;" parent="1" vertex="1">
          <mxGeometry x="1000" y="170.01" width="65" height="33.74" as="geometry" />
        </mxCell>
        <mxCell id="WK32DhDvXuLAIViGbRyr-119" value="&lt;b&gt;&lt;font style=&quot;font-size: 18px;&quot;&gt;Relu&lt;/font&gt;&lt;/b&gt;" style="rounded=1;whiteSpace=wrap;html=1;fillColor=#a20025;fontColor=#ffffff;strokeColor=#6F0000;rotation=-90;" parent="1" vertex="1">
          <mxGeometry x="1165" y="170.01" width="65" height="33.74" as="geometry" />
        </mxCell>
        <mxCell id="WK32DhDvXuLAIViGbRyr-120" value="" style="curved=1;endArrow=classic;html=1;rounded=0;exitX=0;exitY=0.5;exitDx=0;exitDy=0;entryX=0;entryY=0.5;entryDx=0;entryDy=0;" parent="1" source="WK32DhDvXuLAIViGbRyr-117" target="WK32DhDvXuLAIViGbRyr-116" edge="1">
          <mxGeometry width="50" height="50" relative="1" as="geometry">
            <mxPoint x="905" y="300" as="sourcePoint" />
            <mxPoint x="955" y="250" as="targetPoint" />
            <Array as="points">
              <mxPoint x="885" y="410" />
              <mxPoint x="1025" y="430" />
              <mxPoint x="1425" y="430" />
            </Array>
          </mxGeometry>
        </mxCell>
        <mxCell id="WK32DhDvXuLAIViGbRyr-122" value="&lt;b&gt;&lt;font style=&quot;font-size: 18px;&quot;&gt;Relu&lt;/font&gt;&lt;/b&gt;" style="rounded=1;whiteSpace=wrap;html=1;fillColor=#a20025;fontColor=#ffffff;strokeColor=#6F0000;rotation=-90;" parent="1" vertex="1">
          <mxGeometry x="1450" y="283.74" width="65" height="33.74" as="geometry" />
        </mxCell>
        <mxCell id="WK32DhDvXuLAIViGbRyr-124" value="" style="curved=1;endArrow=classic;html=1;rounded=0;fontSize=14;fontStyle=1;exitX=1;exitY=0.5;exitDx=0;exitDy=0;entryX=0.5;entryY=0;entryDx=0;entryDy=0;" parent="1" source="WK32DhDvXuLAIViGbRyr-122" target="WK32DhDvXuLAIViGbRyr-125" edge="1">
          <mxGeometry width="50" height="50" relative="1" as="geometry">
            <mxPoint x="1490" y="263" as="sourcePoint" />
            <mxPoint x="1530" y="180" as="targetPoint" />
            <Array as="points">
              <mxPoint x="1497" y="204" />
            </Array>
          </mxGeometry>
        </mxCell>
        <mxCell id="WK32DhDvXuLAIViGbRyr-125" value="&lt;b&gt;&lt;font style=&quot;font-size: 18px;&quot;&gt;Conv&lt;/font&gt;&lt;/b&gt;" style="rounded=1;whiteSpace=wrap;html=1;fillColor=#0038A8;fontColor=#ffffff;strokeColor=#001DBC;rotation=-90;" parent="1" vertex="1">
          <mxGeometry x="1530" y="161.26" width="65" height="33.74" as="geometry" />
        </mxCell>
        <mxCell id="WK32DhDvXuLAIViGbRyr-126" value="" style="curved=1;endArrow=classic;html=1;rounded=0;fontSize=14;fontStyle=1;exitX=0;exitY=0.5;exitDx=0;exitDy=0;entryX=0.5;entryY=0;entryDx=0;entryDy=0;" parent="1" source="WK32DhDvXuLAIViGbRyr-122" target="WK32DhDvXuLAIViGbRyr-127" edge="1">
          <mxGeometry width="50" height="50" relative="1" as="geometry">
            <mxPoint x="1515" y="450" as="sourcePoint" />
            <mxPoint x="1530" y="420" as="targetPoint" />
            <Array as="points">
              <mxPoint x="1510" y="390" />
            </Array>
          </mxGeometry>
        </mxCell>
        <mxCell id="WK32DhDvXuLAIViGbRyr-127" value="&lt;b&gt;&lt;font style=&quot;font-size: 18px;&quot;&gt;Conv&lt;/font&gt;&lt;/b&gt;" style="rounded=1;whiteSpace=wrap;html=1;fillColor=#0038A8;fontColor=#ffffff;strokeColor=#001DBC;rotation=-90;" parent="1" vertex="1">
          <mxGeometry x="1532" y="410" width="65" height="33.74" as="geometry" />
        </mxCell>
        <mxCell id="WK32DhDvXuLAIViGbRyr-128" value="&lt;b&gt;&lt;font style=&quot;font-size: 18px;&quot;&gt;Conv&lt;/font&gt;&lt;/b&gt;" style="rounded=1;whiteSpace=wrap;html=1;fillColor=#0038A8;fontColor=#ffffff;strokeColor=#001DBC;rotation=-90;" parent="1" vertex="1">
          <mxGeometry x="1530" y="241" width="65" height="33.74" as="geometry" />
        </mxCell>
        <mxCell id="WK32DhDvXuLAIViGbRyr-129" value="&lt;b&gt;&lt;font style=&quot;font-size: 18px;&quot;&gt;Conv&lt;/font&gt;&lt;/b&gt;" style="rounded=1;whiteSpace=wrap;html=1;fillColor=#0038A8;fontColor=#ffffff;strokeColor=#001DBC;rotation=-90;" parent="1" vertex="1">
          <mxGeometry x="1532" y="328" width="65" height="33.74" as="geometry" />
        </mxCell>
        <mxCell id="WK32DhDvXuLAIViGbRyr-130" value="" style="curved=1;endArrow=classic;html=1;rounded=0;exitX=0.75;exitY=1;exitDx=0;exitDy=0;entryX=0.5;entryY=0;entryDx=0;entryDy=0;" parent="1" source="WK32DhDvXuLAIViGbRyr-122" target="WK32DhDvXuLAIViGbRyr-128" edge="1">
          <mxGeometry width="50" height="50" relative="1" as="geometry">
            <mxPoint x="1650" y="350" as="sourcePoint" />
            <mxPoint x="1700" y="300" as="targetPoint" />
            <Array as="points">
              <mxPoint x="1520" y="267" />
            </Array>
          </mxGeometry>
        </mxCell>
        <mxCell id="WK32DhDvXuLAIViGbRyr-131" value="" style="curved=1;endArrow=classic;html=1;rounded=0;exitX=0.25;exitY=1;exitDx=0;exitDy=0;entryX=0.5;entryY=0;entryDx=0;entryDy=0;" parent="1" source="WK32DhDvXuLAIViGbRyr-122" target="WK32DhDvXuLAIViGbRyr-129" edge="1">
          <mxGeometry width="50" height="50" relative="1" as="geometry">
            <mxPoint x="1509" y="296" as="sourcePoint" />
            <mxPoint x="1556" y="277" as="targetPoint" />
            <Array as="points">
              <mxPoint x="1520" y="347" />
            </Array>
          </mxGeometry>
        </mxCell>
        <mxCell id="WK32DhDvXuLAIViGbRyr-139" style="edgeStyle=orthogonalEdgeStyle;rounded=0;orthogonalLoop=1;jettySize=auto;html=1;exitX=0.5;exitY=1;exitDx=0;exitDy=0;entryX=0.5;entryY=0;entryDx=0;entryDy=0;" parent="1" source="WK32DhDvXuLAIViGbRyr-132" target="WK32DhDvXuLAIViGbRyr-138" edge="1">
          <mxGeometry relative="1" as="geometry" />
        </mxCell>
        <mxCell id="WK32DhDvXuLAIViGbRyr-132" value="&lt;b&gt;&lt;font style=&quot;font-size: 18px;&quot;&gt;Sum&lt;/font&gt;&lt;/b&gt;" style="rounded=1;whiteSpace=wrap;html=1;fillColor=#76608a;fontColor=#ffffff;strokeColor=#432D57;rotation=-90;" parent="1" vertex="1">
          <mxGeometry x="1625" y="284.37" width="65" height="33.74" as="geometry" />
        </mxCell>
        <mxCell id="WK32DhDvXuLAIViGbRyr-134" value="" style="curved=1;endArrow=classic;html=1;rounded=0;exitX=0.5;exitY=1;exitDx=0;exitDy=0;entryX=1;entryY=0.5;entryDx=0;entryDy=0;" parent="1" source="WK32DhDvXuLAIViGbRyr-125" target="WK32DhDvXuLAIViGbRyr-132" edge="1">
          <mxGeometry width="50" height="50" relative="1" as="geometry">
            <mxPoint x="1650" y="350" as="sourcePoint" />
            <mxPoint x="1700" y="300" as="targetPoint" />
            <Array as="points">
              <mxPoint x="1640" y="190" />
            </Array>
          </mxGeometry>
        </mxCell>
        <mxCell id="WK32DhDvXuLAIViGbRyr-135" value="" style="curved=1;endArrow=classic;html=1;rounded=0;exitX=0.5;exitY=1;exitDx=0;exitDy=0;entryX=0;entryY=0.5;entryDx=0;entryDy=0;" parent="1" source="WK32DhDvXuLAIViGbRyr-127" target="WK32DhDvXuLAIViGbRyr-132" edge="1">
          <mxGeometry width="50" height="50" relative="1" as="geometry">
            <mxPoint x="1589" y="194" as="sourcePoint" />
            <mxPoint x="1740" y="470" as="targetPoint" />
            <Array as="points">
              <mxPoint x="1650" y="420" />
            </Array>
          </mxGeometry>
        </mxCell>
        <mxCell id="WK32DhDvXuLAIViGbRyr-136" value="" style="curved=1;endArrow=classic;html=1;rounded=0;exitX=0.5;exitY=1;exitDx=0;exitDy=0;entryX=0.25;entryY=0;entryDx=0;entryDy=0;" parent="1" source="WK32DhDvXuLAIViGbRyr-129" target="WK32DhDvXuLAIViGbRyr-132" edge="1">
          <mxGeometry width="50" height="50" relative="1" as="geometry">
            <mxPoint x="1650" y="350" as="sourcePoint" />
            <mxPoint x="1700" y="300" as="targetPoint" />
            <Array as="points">
              <mxPoint x="1610" y="340" />
            </Array>
          </mxGeometry>
        </mxCell>
        <mxCell id="WK32DhDvXuLAIViGbRyr-137" value="" style="curved=1;endArrow=classic;html=1;rounded=0;exitX=0.5;exitY=1;exitDx=0;exitDy=0;entryX=0.75;entryY=0;entryDx=0;entryDy=0;" parent="1" source="WK32DhDvXuLAIViGbRyr-128" target="WK32DhDvXuLAIViGbRyr-132" edge="1">
          <mxGeometry width="50" height="50" relative="1" as="geometry">
            <mxPoint x="1589" y="357" as="sourcePoint" />
            <mxPoint x="1651" y="323" as="targetPoint" />
            <Array as="points">
              <mxPoint x="1610" y="260" />
            </Array>
          </mxGeometry>
        </mxCell>
        <mxCell id="WK32DhDvXuLAIViGbRyr-141" style="edgeStyle=orthogonalEdgeStyle;rounded=0;orthogonalLoop=1;jettySize=auto;html=1;exitX=0.5;exitY=1;exitDx=0;exitDy=0;entryX=0.5;entryY=0;entryDx=0;entryDy=0;" parent="1" source="WK32DhDvXuLAIViGbRyr-138" target="WK32DhDvXuLAIViGbRyr-140" edge="1">
          <mxGeometry relative="1" as="geometry" />
        </mxCell>
        <mxCell id="WK32DhDvXuLAIViGbRyr-138" value="&lt;b&gt;&lt;font style=&quot;font-size: 18px;&quot;&gt;Reshape&lt;/font&gt;&lt;/b&gt;" style="rounded=1;whiteSpace=wrap;html=1;fillColor=#000000;strokeColor=#314354;rotation=-90;fontColor=#ffffff;" parent="1" vertex="1">
          <mxGeometry x="1662" y="283.74" width="105" height="33.74" as="geometry" />
        </mxCell>
        <mxCell id="WK32DhDvXuLAIViGbRyr-144" style="edgeStyle=orthogonalEdgeStyle;rounded=0;orthogonalLoop=1;jettySize=auto;html=1;exitX=0.5;exitY=1;exitDx=0;exitDy=0;entryX=0.5;entryY=0;entryDx=0;entryDy=0;" parent="1" source="WK32DhDvXuLAIViGbRyr-140" target="Iu25lgEWChFgaFbriD92-103" edge="1">
          <mxGeometry relative="1" as="geometry" />
        </mxCell>
        <mxCell id="WK32DhDvXuLAIViGbRyr-140" value="&lt;b&gt;&lt;font style=&quot;font-size: 18px;&quot;&gt;Softmax&lt;/font&gt;&lt;/b&gt;" style="rounded=1;whiteSpace=wrap;html=1;fillColor=#a0522d;fontColor=#ffffff;strokeColor=#6D1F00;rotation=-90;" parent="1" vertex="1">
          <mxGeometry x="1719" y="283.74" width="105" height="33.74" as="geometry" />
        </mxCell>
        <mxCell id="WK32DhDvXuLAIViGbRyr-145" value="" style="strokeWidth=2;html=1;shape=mxgraph.flowchart.annotation_1;align=left;pointerEvents=1;direction=south;fontSize=14;fontStyle=1" parent="1" vertex="1">
          <mxGeometry x="240" y="70" width="570" height="50" as="geometry" />
        </mxCell>
        <mxCell id="WK32DhDvXuLAIViGbRyr-146" value="&lt;font style=&quot;font-size: 18px;&quot;&gt;Sub Graph2&lt;/font&gt;" style="text;html=1;align=center;verticalAlign=middle;resizable=0;points=[];autosize=1;strokeColor=none;fillColor=none;fontSize=14;fontStyle=1" parent="1" vertex="1">
          <mxGeometry x="1065" y="30" width="130" height="40" as="geometry" />
        </mxCell>
        <mxCell id="WK32DhDvXuLAIViGbRyr-147" value="" style="strokeWidth=2;html=1;shape=mxgraph.flowchart.annotation_1;align=left;pointerEvents=1;direction=south;fontSize=14;fontStyle=1" parent="1" vertex="1">
          <mxGeometry x="1456" y="120.01" width="396" height="50" as="geometry" />
        </mxCell>
        <mxCell id="WK32DhDvXuLAIViGbRyr-148" value="" style="curved=1;endArrow=classic;html=1;rounded=0;exitX=0.5;exitY=1;exitDx=0;exitDy=0;entryX=0;entryY=0.25;entryDx=0;entryDy=0;" parent="1" source="WK32DhDvXuLAIViGbRyr-51" target="WK32DhDvXuLAIViGbRyr-122" edge="1">
          <mxGeometry width="50" height="50" relative="1" as="geometry">
            <mxPoint x="360" y="440" as="sourcePoint" />
            <mxPoint x="410" y="390" as="targetPoint" />
            <Array as="points">
              <mxPoint x="240" y="430" />
              <mxPoint x="340" y="500" />
              <mxPoint x="760" y="500" />
              <mxPoint x="1430" y="500" />
            </Array>
          </mxGeometry>
        </mxCell>
        <mxCell id="O-YVKeGHTe0U903timhD-2" value="&lt;font style=&quot;font-size: 18px;&quot;&gt;Input&lt;/font&gt;" style="rounded=1;whiteSpace=wrap;html=1;fillColor=#f5f5f5;gradientColor=#b3b3b3;strokeColor=#666666;fontSize=14;fontStyle=1;rotation=-90;" parent="1" vertex="1">
          <mxGeometry x="-233" y="287" width="441.25" height="35" as="geometry" />
        </mxCell>
        <mxCell id="O-YVKeGHTe0U903timhD-3" value="&lt;span style=&quot;font-size: 18px;&quot;&gt;Intermediate Layers&lt;/span&gt;" style="text;html=1;align=center;verticalAlign=middle;resizable=0;points=[];autosize=1;strokeColor=none;fillColor=none;fontSize=14;fontStyle=1" parent="1" vertex="1">
          <mxGeometry x="-43" y="526.76" width="188" height="34" as="geometry" />
        </mxCell>
        <mxCell id="O-YVKeGHTe0U903timhD-4" value="" style="endArrow=classic;html=1;rounded=0;exitX=0.388;exitY=-0.118;exitDx=0;exitDy=0;exitPerimeter=0;" parent="1" source="O-YVKeGHTe0U903timhD-3" edge="1">
          <mxGeometry width="50" height="50" relative="1" as="geometry">
            <mxPoint x="-19" y="497.5" as="sourcePoint" />
            <mxPoint x="31" y="447.5" as="targetPoint" />
          </mxGeometry>
        </mxCell>
        <mxCell id="F70CpfhkYuepBe6Q6tAn-1" value="&lt;font style=&quot;font-size: 18px;&quot;&gt;Early Exit Point:&amp;nbsp;conv5_1&lt;/font&gt;" style="text;html=1;align=center;verticalAlign=middle;resizable=0;points=[];autosize=1;strokeColor=none;fillColor=none;fontSize=14;fontStyle=1;rotation=0;" parent="1" vertex="1">
          <mxGeometry x="180" y="497" width="233" height="34" as="geometry" />
        </mxCell>
        <mxCell id="F70CpfhkYuepBe6Q6tAn-2" value="" style="endArrow=classic;html=1;rounded=0;exitX=0.121;exitY=0.016;exitDx=0;exitDy=0;exitPerimeter=0;" parent="1" source="F70CpfhkYuepBe6Q6tAn-1" edge="1">
          <mxGeometry width="50" height="50" relative="1" as="geometry">
            <mxPoint x="208" y="504" as="sourcePoint" />
            <mxPoint x="208" y="369" as="targetPoint" />
          </mxGeometry>
        </mxCell>
      </root>
    </mxGraphModel>
  </diagram>
</mxfile>
